# xmcd
#
# Track frame offsets:
#	150
#	4230
#	16977
#	26242
#	36177
#	57115
#	75527
#	90357
#	100116
#	110105
#	140784
#	157433
#	171993
#	188050
#	199886
#	217432
#	240507
#	243933
#	259103
#
# Disc length: 3716 seconds
#
# Revision: 1
# Processed by: cddbd v1.5.2PL0 Copyright (c) Steve Scherf et al.
# Submitted via: audiograbber 1.83.01
#
DISCID=100e8213
DTITLE=Froschhaxn Express - Live
DYEAR=1900
DGENRE=Stimmungsmusik
TTITLE0=Ein Prosit
TTITLE1=Griass Gott
TTITLE2=Trompetenecho
TTITLE3=Bergvagabunden
TTITLE4=Her mit meinen Hennen
TTITLE5=Sweet Caroline
TTITLE6=Achy Breaky Heart
TTITLE7=Haberfeldtreiber
TTITLE8=Rehragout
TTITLE9=Wir fahren mit dem Bob
TTITLE10=Schickeria
TTITLE11=Summer of 69
TTITLE12=Highway To Hell
TTITLE13=I Love Rock'n Roll
TTITLE14=Proud Mary
TTITLE15=Grossvater
TTITLE16=Ansage
TTITLE17=Wonderwall
TTITLE18=Mei Vadda hat an Marihuanabam
EXTD=
EXTT0=
EXTT1=
EXTT2=
EXTT3=
EXTT4=
EXTT5=
EXTT6=
EXTT7=
EXTT8=
EXTT9=
EXTT10=
EXTT11=
EXTT12=
EXTT13=
EXTT14=
EXTT15=
EXTT16=
EXTT17=
EXTT18=
PLAYORDER=
